<svg xmlns="http://www.w3.org/2000/svg" viewBox="0 0 1080 295" style="max-width:100%;display:block">
  <defs>
    <marker id="arr" viewBox="0 0 10 10" refX="9" refY="5" markerWidth="6" markerHeight="6" orient="auto">
      <polygon points="0,1 10,5 0,9" fill="#94a3b8"/>
    </marker>
  </defs>

  <!-- Background -->
  <rect width="1080" height="295" fill="#0f172a" rx="12"/>

  <!-- Title -->
  <text x="540" y="34" text-anchor="middle"
    font-family="'Segoe UI',system-ui,Arial,sans-serif"
    font-size="15" font-weight="700" fill="#f1f5f9" letter-spacing="0.4">
    AI LineUp Architect — Arquitectura del Sistema
  </text>

  <!-- ══ CARD 1: ACTORES (x=8) ══ -->
  <g transform="translate(8,48)" font-family="'Segoe UI',system-ui,Arial,sans-serif">
    <rect width="163" height="228" rx="10" fill="#1e293b" stroke="#334155" stroke-width="1.5"/>
    <rect width="163" height="36" rx="10" fill="#475569"/>
    <rect y="27" width="163" height="9" fill="#475569"/>
    <text x="81" y="23" text-anchor="middle" font-size="12" font-weight="700" fill="#f8fafc">👤 Actores</text>

    <rect x="10" y="44" width="143" height="28" rx="6" fill="#334155" stroke="#64748b" stroke-width="1"/>
    <text x="81" y="57" text-anchor="middle" font-size="11" fill="#cbd5e1">🎤 Cómico</text>
    <text x="81" y="69" text-anchor="middle" font-size="9" fill="#94a3b8">rellena Google Form</text>

    <rect x="10" y="80" width="143" height="28" rx="6" fill="#334155" stroke="#64748b" stroke-width="1"/>
    <text x="81" y="93" text-anchor="middle" font-size="11" fill="#e2e8f0">👤 Host</text>
    <text x="81" y="105" text-anchor="middle" font-size="9" fill="#94a3b8">gestiona open mic</text>

    <rect x="10" y="116" width="143" height="26" rx="6" fill="#1e293b" stroke="#475569" stroke-width="1" stroke-dasharray="4,3"/>
    <text x="81" y="133" text-anchor="middle" font-size="9" fill="#64748b">🔑 Google OAuth</text>

    <rect x="10" y="150" width="143" height="26" rx="6" fill="#1e293b" stroke="#475569" stroke-width="1" stroke-dasharray="4,3"/>
    <text x="81" y="167" text-anchor="middle" font-size="9" fill="#64748b">🤖 @ailineup_bot</text>

    <text x="81" y="216" text-anchor="middle" font-size="9" fill="#475569">Telegram + Web</text>
  </g>

  <!-- Arrow 1→2 -->
  <line x1="173" y1="162" x2="183" y2="162" stroke="#94a3b8" stroke-width="2.5" marker-end="url(#arr)"/>

  <!-- ══ CARD 2: FRONTEND (x=185) ══ -->
  <g transform="translate(185,48)" font-family="'Segoe UI',system-ui,Arial,sans-serif">
    <rect width="163" height="228" rx="10" fill="#082f49" stroke="#0369a1" stroke-width="1.5"/>
    <rect width="163" height="36" rx="10" fill="#0284c7"/>
    <rect y="27" width="163" height="9" fill="#0284c7"/>
    <text x="81" y="23" text-anchor="middle" font-size="12" font-weight="700" fill="#f0f9ff">⚛️ Frontend</text>

    <rect x="10" y="44" width="143" height="26" rx="6" fill="#0c4a6e" stroke="#38bdf8" stroke-width="1"/>
    <text x="81" y="61" text-anchor="middle" font-size="10" fill="#7dd3fc">🔐 Login / Onboarding</text>

    <rect x="10" y="78" width="143" height="26" rx="6" fill="#0c4a6e" stroke="#38bdf8" stroke-width="1"/>
    <text x="81" y="95" text-anchor="middle" font-size="10" fill="#7dd3fc">📋 OpenMicSelector</text>

    <rect x="10" y="112" width="143" height="26" rx="6" fill="#0c4a6e" stroke="#38bdf8" stroke-width="1"/>
    <text x="81" y="129" text-anchor="middle" font-size="10" fill="#7dd3fc">🎯 OpenMicDetail</text>

    <rect x="10" y="146" width="143" height="26" rx="6" fill="#0c4a6e" stroke="#38bdf8" stroke-width="1"/>
    <text x="81" y="163" text-anchor="middle" font-size="10" fill="#7dd3fc">✏️ Lineup App</text>

    <text x="81" y="216" text-anchor="middle" font-size="9" fill="#0369a1">React + Vite + Tailwind</text>
  </g>

  <!-- Arrow 2→3 -->
  <line x1="350" y1="162" x2="360" y2="162" stroke="#94a3b8" stroke-width="2.5" marker-end="url(#arr)"/>

  <!-- ══ CARD 3: BACKEND (x=362) ══ -->
  <g transform="translate(362,48)" font-family="'Segoe UI',system-ui,Arial,sans-serif">
    <rect width="163" height="228" rx="10" fill="#1c0a00" stroke="#9a3412" stroke-width="1.5"/>
    <rect width="163" height="36" rx="10" fill="#c2410c"/>
    <rect y="27" width="163" height="9" fill="#c2410c"/>
    <text x="81" y="23" text-anchor="middle" font-size="12" font-weight="700" fill="#fff7ed">🐍 Backend</text>

    <rect x="10" y="44" width="143" height="26" rx="6" fill="#431407" stroke="#f97316" stroke-width="1"/>
    <text x="81" y="61" text-anchor="middle" font-size="10" fill="#fed7aa">🪝 webhook_listener</text>

    <rect x="10" y="78" width="143" height="26" rx="6" fill="#431407" stroke="#f97316" stroke-width="1"/>
    <text x="81" y="95" text-anchor="middle" font-size="10" fill="#fed7aa">📝 Form Builder</text>

    <rect x="10" y="112" width="143" height="26" rx="6" fill="#431407" stroke="#fb923c" stroke-width="1"/>
    <text x="81" y="129" text-anchor="middle" font-size="10" fill="#fed7aa">🖼️ Renderer :5050</text>

    <rect x="10" y="146" width="143" height="26" rx="6" fill="#431407" stroke="#fb923c" stroke-width="1"/>
    <text x="81" y="163" text-anchor="middle" font-size="10" fill="#fed7aa">🤖 Gemini Vision</text>

    <text x="81" y="216" text-anchor="middle" font-size="9" fill="#9a3412">Flask :5000 · FastAPI :5050</text>
  </g>

  <!-- Arrow 3→4 -->
  <line x1="527" y1="162" x2="537" y2="162" stroke="#94a3b8" stroke-width="2.5" marker-end="url(#arr)"/>

  <!-- ══ CARD 4: SUPABASE (x=539) ══ -->
  <g transform="translate(539,48)" font-family="'Segoe UI',system-ui,Arial,sans-serif">
    <rect width="163" height="228" rx="10" fill="#022c22" stroke="#065f46" stroke-width="1.5"/>
    <rect width="163" height="36" rx="10" fill="#059669"/>
    <rect y="27" width="163" height="9" fill="#059669"/>
    <text x="81" y="23" text-anchor="middle" font-size="12" font-weight="700" fill="#ecfdf5">🗄️ Supabase</text>

    <rect x="10" y="44" width="143" height="26" rx="6" fill="#065f46" stroke="#6ee7b7" stroke-width="1"/>
    <text x="81" y="61" text-anchor="middle" font-size="10" fill="#6ee7b7">🥉 Bronze — raw data</text>

    <rect x="10" y="78" width="143" height="26" rx="6" fill="#065f46" stroke="#34d399" stroke-width="1"/>
    <text x="81" y="95" text-anchor="middle" font-size="10" fill="#6ee7b7">🥈 Silver — curated</text>

    <rect x="10" y="112" width="143" height="26" rx="6" fill="#065f46" stroke="#34d399" stroke-width="1"/>
    <text x="81" y="129" text-anchor="middle" font-size="10" fill="#6ee7b7">🥇 Gold — confirmed</text>

    <rect x="10" y="146" width="143" height="26" rx="6" fill="#065f46" stroke="#a7f3d0" stroke-width="1" stroke-dasharray="4,3"/>
    <text x="81" y="163" text-anchor="middle" font-size="10" fill="#a7f3d0">☁️ Storage (posters)</text>

    <text x="81" y="216" text-anchor="middle" font-size="9" fill="#047857">PostgreSQL · Medallion</text>
  </g>

  <!-- Arrow 4→5 -->
  <line x1="704" y1="162" x2="714" y2="162" stroke="#94a3b8" stroke-width="2.5" marker-end="url(#arr)"/>

  <!-- ══ CARD 5: n8n (x=716) ══ -->
  <g transform="translate(716,48)" font-family="'Segoe UI',system-ui,Arial,sans-serif">
    <rect width="163" height="228" rx="10" fill="#1a0011" stroke="#831843" stroke-width="1.5"/>
    <rect width="163" height="36" rx="10" fill="#be185d"/>
    <rect y="27" width="163" height="9" fill="#be185d"/>
    <text x="81" y="23" text-anchor="middle" font-size="12" font-weight="700" fill="#fdf2f8">🔄 n8n</text>

    <rect x="10" y="44" width="143" height="26" rx="6" fill="#500724" stroke="#f472b6" stroke-width="1"/>
    <text x="81" y="61" text-anchor="middle" font-size="10" fill="#fbcfe8">📥 Ingesta Forms</text>

    <rect x="10" y="78" width="143" height="26" rx="6" fill="#500724" stroke="#f472b6" stroke-width="1"/>
    <text x="81" y="95" text-anchor="middle" font-size="10" fill="#fbcfe8">🧮 Scoring IA</text>

    <rect x="10" y="112" width="143" height="26" rx="6" fill="#500724" stroke="#f472b6" stroke-width="1"/>
    <text x="81" y="129" text-anchor="middle" font-size="10" fill="#fbcfe8">🎨 Render Poster</text>

    <rect x="10" y="146" width="143" height="26" rx="6" fill="#500724" stroke="#f472b6" stroke-width="1"/>
    <text x="81" y="163" text-anchor="middle" font-size="10" fill="#fbcfe8">📲 Envío Telegram</text>

    <text x="81" y="216" text-anchor="middle" font-size="9" fill="#9d174d">Workflows automatizados</text>
  </g>

  <!-- Arrow 5→6 -->
  <line x1="881" y1="162" x2="891" y2="162" stroke="#94a3b8" stroke-width="2.5" marker-end="url(#arr)"/>

  <!-- ══ CARD 6: SALIDA (x=893) ══ -->
  <g transform="translate(893,48)" font-family="'Segoe UI',system-ui,Arial,sans-serif">
    <rect width="175" height="228" rx="10" fill="#0c0a1e" stroke="#4338ca" stroke-width="1.5"/>
    <rect width="175" height="36" rx="10" fill="#4f46e5"/>
    <rect y="27" width="175" height="9" fill="#4f46e5"/>
    <text x="87" y="23" text-anchor="middle" font-size="12" font-weight="700" fill="#eef2ff">📤 Salida</text>

    <rect x="10" y="44" width="155" height="26" rx="6" fill="#1e1b4b" stroke="#818cf8" stroke-width="1"/>
    <text x="87" y="61" text-anchor="middle" font-size="10" fill="#c7d2fe">📋 Google Forms</text>

    <rect x="10" y="78" width="155" height="26" rx="6" fill="#0c4a6e" stroke="#38bdf8" stroke-width="1"/>
    <text x="87" y="95" text-anchor="middle" font-size="10" fill="#bae6fd">✈️ @ailineup_bot</text>

    <rect x="10" y="112" width="155" height="26" rx="6" fill="#2e1065" stroke="#c084fc" stroke-width="1"/>
    <text x="87" y="129" text-anchor="middle" font-size="10" fill="#e9d5ff">🖼️ PNG Poster</text>

    <rect x="10" y="146" width="155" height="26" rx="6" fill="#1c1917" stroke="#57534e" stroke-width="1"/>
    <text x="87" y="163" text-anchor="middle" font-size="10" fill="#d6d3d1">🌐 Vercel + Traefik</text>

    <text x="87" y="216" text-anchor="middle" font-size="9" fill="#4338ca">api.machango.org</text>
  </g>

</svg>
